<svg xmlns:xlink="http://www.w3.org/1999/xlink" xmlns="http://www.w3.org/2000/svg" enable-background="new 0 0 24 24" height="24" viewBox="0 0 24 24" width="24" focusable="false" style="pointer-events: none; display: block; width: 100%; height: 100%;"><path d="M10 12H8v2H6v-2H4v-2h2V8h2v2h2v2zm7 .5c0-.83-.67-1.5-1.5-1.5s-1.5.67-1.5 1.5.67 1.5 1.5 1.5 1.5-.67 1.5-1.5zm3-3c0-.83-.67-1.5-1.5-1.5S17 8.67 17 9.5s.67 1.5 1.5 1.5 1.5-.67 1.5-1.5zm-3.03-4.35-4.5 2.53-.49.27-.49-.27-4.5-2.53L3 7.39v6.43l8.98 5.04 8.98-5.04V7.39l-3.99-2.24m0-1.15 4.99 2.8v7.6L11.98 20 2 14.4V6.8L6.99 4l4.99 2.8L16.97 4z" fill="#030303"></path></svg>