<svg xmlns:xlink="http://www.w3.org/1999/xlink" xmlns="http://www.w3.org/2000/svg" enable-background="new 0 0 24 24" height="24" viewBox="0 0 24 24" width="24" focusable="false" style="pointer-events: none; display: block; width: 100%; height: 100%;"><path d="M15.36 9.96c0 1.09-.67 1.67-1.31 2.24-.53.47-1.03.9-1.16 1.6l-.04.2H11.1l.03-.28c.14-1.17.8-1.76 1.47-2.27.52-.4 1.01-.77 1.01-1.49 0-.51-.23-.97-.63-1.29-.4-.31-.92-.42-1.42-.29-.59.15-1.05.67-1.19 1.34l-.05.28H8.57l.06-.42c.2-1.4 1.15-2.53 2.42-2.87 1.05-.29 2.14-.08 2.98.57.85.64 1.33 1.62 1.33 2.68zM12 18c.55 0 1-.45 1-1s-.45-1-1-1-1 .45-1 1 .45 1 1 1zm0-15c-4.96 0-9 4.04-9 9s4.04 9 9 9 9-4.04 9-9-4.04-9-9-9m0-1c5.52 0 10 4.48 10 10s-4.48 10-10 10S2 17.52 2 12 6.48 2 12 2z" fill="#030303"></path></svg>