<svg xmlns:xlink="http://www.w3.org/1999/xlink" xmlns="http://www.w3.org/2000/svg" enable-background="new 0 0 24 24" height="24" viewBox="0 0 24 24" width="24" focusable="false" style="pointer-events: none; display: block; width: 100%; height: 100%;"><path d="M16 21h-2.28c-.35.6-.98 1-1.72 1s-1.38-.4-1.72-1H8v-1h8v1zm4-11c0 2.96-1.61 5.54-4 6.92V19H8v-2.08C5.61 15.54 4 12.96 4 10c0-4.42 3.58-8 8-8s8 3.58 8 8zm-5 8v-1.66l.5-.29C17.66 14.8 19 12.48 19 10c0-3.86-3.14-7-7-7s-7 3.14-7 7c0 2.48 1.34 4.8 3.5 6.06l.5.28V18h6z" fill="#030303"></path></svg>