<svg xmlns:xlink="http://www.w3.org/1999/xlink" xmlns="http://www.w3.org/2000/svg" height="24" viewBox="0 0 24 24" width="24" focusable="false" style="pointer-events: none; display: block; width: 100%; height: 100%;"><path d="M7 8c0 2.76 2.24 5 5 5s5-2.24 5-5h-1c0 2.21-1.79 4-4 4s-4-1.79-4-4H7zm9.9-2c-.46-2.28-2.48-4-4.9-4S7.56 3.72 7.1 6H4v14c0 1.1.9 2 2 2h12c1.1 0 2-.9 2-2V6h-3.1zM12 3c1.86 0 3.43 1.27 3.87 3H8.13c.44-1.73 2.01-3 3.87-3zm7 17c0 .55-.45 1-1 1H6c-.55 0-1-.45-1-1V7h14v13z" fill="#030303"></path></svg>