<svg xmlns:xlink="http://www.w3.org/1999/xlink" xmlns="http://www.w3.org/2000/svg" viewBox="0 0 24 24" focusable="false" style="pointer-events: none; display: block; width: 100%; height: 100%;" width="24"  height="24" >
  <path fill="#FF0000" d="M21.39,13.19c0-0.08,0-0.15,0-0.22c-0.01-0.86-0.5-5-0.78-5.74c-0.32-0.85-0.76-1.5-1.31-1.91 c-0.9-0.67-1.66-0.82-2.6-0.84l-0.02,0c-0.4,0-3.01,0.32-5.2,0.62C9.28,5.4,6.53,5.8,5.88,6.04c-0.9,0.33-1.62,0.77-2.19,1.33 c-1.05,1.04-1.18,2.11-1.04,3.51c0.1,1.09,0.69,5.37,1.02,6.35c0.45,1.32,1.33,2.12,2.47,2.24c0.28,0.03,0.55,0.05,0.82,0.05 c1,0,1.8-0.21,2.72-0.46c1.45-0.39,3.25-0.87,6.97-0.87l0.09,0h0.02c0.91,0,3.14-0.2,4.16-2.07C21.44,15.12,21.41,13.91,21.39,13.19 z"></path>
  <path fill="#000" d="M21.99,13.26c0-0.08,0-0.16-0.01-0.24c-0.01-0.92-0.54-5.32-0.83-6.11c-0.34-0.91-0.81-1.59-1.4-2.03 C18.81,4.17,17.99,4.02,17,4l-0.02,0c-0.43,0-3.21,0.34-5.54,0.66c-2.33,0.32-5.25,0.75-5.95,1C4.53,6.01,3.76,6.48,3.16,7.08 c-1.12,1.1-1.25,2.25-1.11,3.74c0.11,1.16,0.73,5.71,1.08,6.75c0.48,1.41,1.41,2.25,2.63,2.38C6.06,19.98,6.34,20,6.63,20 c1.07,0,1.91-0.23,2.89-0.49c1.54-0.41,3.46-0.93,7.41-0.93l0.1,0h0.02c0.97,0,3.34-0.21,4.42-2.2 C22.04,15.32,22.01,14.03,21.99,13.26z M20.59,15.91c-0.82,1.51-2.75,1.68-3.56,1.68l-0.1,0c-4.09,0-6.07,0.53-7.67,0.96 C8.31,18.8,7.56,19,6.63,19c-0.25,0-0.5-0.01-0.76-0.04c-1.04-0.11-1.54-0.99-1.79-1.71c-0.3-0.88-0.91-5.21-1.04-6.53 C2.9,9.25,3.1,8.54,3.86,7.79c0.5-0.5,1.15-0.89,1.97-1.19c0.17-0.06,1.1-0.32,5.74-0.95C14.2,5.29,16.64,5.01,16.99,5 c0.83,0.02,1.43,0.13,2.17,0.69c0.43,0.32,0.79,0.86,1.06,1.58c0.22,0.58,0.76,4.78,0.77,5.77l0.01,0.25 C21.01,13.96,21.04,15.08,20.59,15.91z"></path>
  <path fill="#000" d="M11.59,14.76c-0.48,0.36-0.8,0.45-1.01,0.45c-0.16,0-0.25-0.05-0.3-0.08c-0.34-0.18-0.42-0.61-0.5-1.2l-0.01-0.1 c-0.04-0.31-0.26-2.1-0.38-3.16L9.3,9.94C9.26,9.66,9.2,9.19,9.54,8.94c0.32-0.23,0.75-0.09,0.96-0.03c0.53,0.17,3.6,1.23,4.59,1.73 c0.21,0.09,0.67,0.28,0.68,0.83c0.01,0.5-0.38,0.74-0.53,0.82L11.59,14.76z"></path>
  <path fill="#FFFFFF" d="M10.3,9.89c0,0,0.5,4.08,0.51,4.19c0.06-0.04,3.79-2.58,3.79-2.58C13.71,11.07,11.07,10.14,10.3,9.89z"></path>
</svg>