<svg xmlns:xlink="http://www.w3.org/1999/xlink" xmlns="http://www.w3.org/2000/svg" viewBox="0 0 24 24" focusable="false" style="pointer-events: none; display: block; width: 100%; height: 100%;" width="24"  height="24" ><path fill="#FF0000" d="M11.13 1.21c.48-.28 1.26-.28 1.74 0l8.01 4.64c.48.28.87.97.87 1.53v9.24c0 .56-.39 1.25-.87 1.53l-8.01 4.64c-.48.28-1.26.28-1.74 0l-8.01-4.64c-.48-.28-.87-.97-.87-1.53V7.38c0-.56.39-1.25.87-1.53l8.01-4.64z"></path><path fill="#FFFFFF" d="m12.71 18.98 4.9-2.83c.41-.24.64-.77.64-1.24V9.24c0-.47-.23-1-.64-1.24l-4.9-2.82c-.41-.23-1.02-.23-1.42 0L6.39 8c-.4.23-.64.77-.64 1.24v5.67c0 .47.24 1 .64 1.24l4.9 2.83c.2.12.46.18.71.18.26-.01.51-.07.71-.18z"></path><path fill="#FF0000" d="m12.32 5.73 4.89 2.83c.16.09.41.31.41.67v5.67c0 .37-.25.54-.41.64l-4.89 2.83c-.16.09-.48.09-.64 0l-4.89-2.83c-.16-.09-.41-.34-.41-.64V9.24c.02-.37.25-.58.41-.68l4.89-2.83c.08-.05.2-.07.32-.07s.24.02.32.07z"></path><path fill="#FFFFFF" d="M9.88 15.25 15.5 12 9.88 8.75z"></path></svg>